<svg xmlns="http://www.w3.org/2000/svg" width="13.496" height="11.21" viewBox="0 0 13.496 11.21">
  <g id="left-arrow_2_" data-name="left-arrow (2)" transform="translate(13.496 11.21) rotate(180)">
    <g id="Group_7" data-name="Group 7" transform="translate(0 0)">
      <path id="Path_21" data-name="Path 21" d="M12.737,4.546l.021,0H3.727L6.566,1.706a.746.746,0,0,0,0-1.048L6.125.216a.739.739,0,0,0-1.043,0L.215,5.081a.744.744,0,0,0,0,1.047l4.867,4.867a.74.74,0,0,0,1.043,0l.442-.442a.731.731,0,0,0,.215-.521.709.709,0,0,0-.215-.512L3.7,6.658h9.052A.765.765,0,0,0,13.5,5.9V5.276A.75.75,0,0,0,12.737,4.546Z" fill="#f18c8e"/>
    </g>
  </g>
</svg>
